<?xml version="1.0" standalone="no"?>
<!DOCTYPE svg PUBLIC "-//W3C//DTD SVG 20010904//EN"
 "http://www.w3.org/TR/2001/REC-SVG-20010904/DTD/svg10.dtd">
<svg version="1.0" xmlns="http://www.w3.org/2000/svg"
 width="400.000000pt" height="400.000000pt" viewBox="0 0 400.000000 400.000000"
 preserveAspectRatio="xMidYMid meet">
<metadata>
Created by potrace 1.14, written by Peter Selinger 2001-2017
</metadata>
<g transform="translate(0.000000,400.000000) scale(0.100000,-0.100000)"
fill="#000000" stroke="none">
<path d="M1845 3748 c-49 -5 -103 -9 -120 -9 -16 -1 -49 -8 -73 -16 -30 -11
-61 -14 -106 -10 -56 5 -66 4 -82 -15 -15 -16 -114 -68 -130 -68 -2 0 -4 9 -4
19 0 49 -50 36 -76 -19 -12 -26 -36 -52 -65 -70 -73 -48 -250 -247 -279 -315
-20 -46 -45 -72 -55 -55 -17 27 -22 0 -24 -117 -1 -78 -8 -153 -18 -193 -8
-35 -12 -65 -7 -67 10 -3 10 -235 0 -251 -6 -10 -9 -616 -3 -707 12 -192 22
-288 34 -345 8 -36 18 -88 23 -116 9 -60 15 -80 40 -149 10 -27 23 -67 29 -87
15 -48 130 -256 169 -305 16 -21 35 -49 42 -62 6 -13 35 -49 63 -81 29 -31 70
-79 93 -106 25 -30 66 -62 104 -83 35 -18 78 -48 96 -65 30 -29 59 -44 234
-116 68 -28 253 -55 295 -43 17 5 66 6 110 3 47 -3 103 0 136 7 30 7 86 17
124 22 43 6 98 24 150 49 45 22 97 43 115 47 60 13 145 65 209 128 54 53 73
81 126 192 34 72 65 142 69 158 3 15 15 36 26 47 14 14 24 48 34 110 14 86 45
218 67 288 20 63 27 442 18 930 -3 138 -2 252 3 252 4 0 8 69 8 153 0 107 5
169 15 204 8 28 19 90 24 139 5 49 14 90 20 92 17 6 13 27 -15 87 -34 72 -95
126 -231 205 -199 116 -213 124 -213 132 0 4 -6 8 -14 8 -7 0 -40 12 -72 28
-43 20 -59 32 -59 47 0 25 -33 32 -49 10 -12 -16 -15 -16 -44 -1 -17 9 -34 20
-37 26 -3 5 -16 10 -29 10 -13 0 -36 6 -52 14 -121 58 -168 68 -304 64 -58 -1
-132 0 -165 4 -33 3 -100 2 -150 -4z m307 -623 c14 -16 16 -31 11 -72 -6 -52
-5 -53 20 -53 14 0 30 6 34 13 7 12 23 21 48 27 6 1 9 -11 7 -28 -3 -32 22
-52 42 -32 5 5 18 10 29 10 11 0 22 11 28 30 14 38 32 28 24 -12 -6 -23 -2
-34 15 -50 21 -19 22 -28 17 -92 -6 -74 -35 -162 -85 -261 -16 -31 -27 -66
-25 -76 7 -25 39 -24 53 1 14 27 60 49 98 48 24 -1 40 8 71 40 22 22 47 55 56
72 25 49 27 31 5 -54 -27 -101 -9 -142 45 -102 11 8 24 12 30 11 60 -18 61
-18 104 54 46 75 79 99 111 79 11 -7 20 -19 20 -27 0 -7 8 -19 17 -26 15 -11
16 -19 5 -77 -7 -36 -12 -74 -12 -86 0 -30 31 -37 52 -13 9 12 18 21 21 21 6
0 14 -56 23 -147 6 -61 7 -63 34 -63 23 0 31 -7 49 -49 34 -81 30 -96 -37
-130 -32 -16 -76 -33 -97 -37 -21 -4 -50 -13 -64 -20 -48 -26 -61 -19 -61 31
0 75 -29 161 -69 204 -51 54 -147 80 -121 32 5 -10 7 -21 4 -24 -3 -3 1 -4 10
-3 8 1 18 5 22 8 3 4 15 -2 27 -13 11 -10 29 -19 39 -19 11 0 18 -7 18 -20 0
-11 5 -20 11 -20 6 0 8 -9 4 -22 -8 -24 -28 -52 -25 -33 4 21 0 27 -13 17 -9
-8 -20 -7 -40 3 -24 12 -27 12 -27 -2 0 -10 -6 -13 -16 -9 -13 5 -15 1 -11
-16 4 -16 -1 -30 -18 -47 -17 -15 -24 -31 -21 -47 3 -13 0 -26 -5 -29 -5 -4
-5 -14 2 -27 6 -12 7 -18 1 -14 -5 3 -12 -1 -16 -9 -3 -8 -1 -15 4 -15 6 0 10
-7 10 -15 0 -8 -4 -15 -8 -15 -5 0 -7 -13 -4 -30 2 -17 8 -30 13 -30 5 0 9 -5
9 -11 0 -5 -5 -7 -11 -4 -7 5 -8 -5 -3 -31 4 -21 8 -54 9 -73 1 -20 3 -36 4
-36 2 0 4 -10 7 -21 3 -16 -2 -23 -20 -28 -15 -4 -25 -15 -29 -31 -4 -21 -1
-25 12 -19 9 4 31 12 50 19 19 7 43 25 54 40 11 14 30 31 43 36 14 5 24 17 24
27 0 11 11 39 24 63 13 24 29 67 36 95 12 47 15 50 45 51 18 1 70 19 116 41
105 49 157 68 165 59 4 -4 0 -35 -10 -69 -28 -106 -51 -520 -31 -570 3 -9 0
-45 -9 -80 -29 -126 -37 -164 -45 -241 -7 -59 -16 -90 -38 -126 -17 -26 -42
-82 -56 -124 -62 -177 -152 -266 -389 -381 -77 -38 -138 -60 -180 -66 -34 -6
-91 -15 -126 -20 -41 -7 -69 -7 -81 -1 -10 6 -67 10 -127 9 -243 -1 -246 -1
-294 26 -98 55 -157 84 -205 100 -97 31 -200 101 -258 173 -30 38 -64 77 -77
88 -38 34 -118 161 -181 288 -77 153 -111 256 -109 322 2 88 -3 187 -11 225
-14 60 -20 510 -7 510 6 0 22 -6 36 -14 15 -8 43 -20 62 -26 19 -6 66 -29 105
-52 38 -23 71 -42 72 -43 2 -1 6 -28 11 -61 6 -47 18 -74 59 -135 69 -103 138
-146 245 -156 53 -5 57 -4 52 15 -3 11 -1 23 5 26 6 4 9 1 5 -7 -3 -8 0 -18 7
-23 7 -4 10 -3 5 4 -3 6 -2 13 4 17 5 3 10 -1 10 -11 0 -15 2 -15 23 -1 51 35
186 175 192 200 4 15 13 27 21 27 9 0 14 20 16 72 3 64 5 73 23 76 11 2 37 17
57 33 51 40 81 50 136 42 78 -10 136 -47 167 -106 6 -12 17 -21 23 -20 8 2 12
-14 12 -45 1 -74 24 -152 63 -214 20 -31 41 -59 47 -63 5 -3 10 -19 10 -36 0
-29 22 -41 35 -19 3 5 22 7 42 4 20 -3 51 -3 69 1 30 5 32 8 21 25 -9 16 -19
19 -44 14 -26 -5 -33 -3 -33 10 0 9 -5 16 -11 16 -8 0 -7 5 1 15 17 20 4 32
-18 18 -15 -9 -18 -7 -20 11 -1 15 1 17 7 7 6 -9 11 -10 15 -2 4 6 12 8 18 5
14 -9 1 47 -14 61 -8 7 -9 6 -4 -2 5 -9 2 -11 -8 -7 -19 7 -21 20 -3 28 10 5
10 7 0 12 -24 11 -13 24 17 20 17 -2 30 1 30 5 0 5 -8 9 -18 9 -16 0 -19 9
-21 51 -2 63 -25 95 -35 47 -3 -17 -7 -49 -7 -72 -1 -40 -2 -40 -11 14 -5 30
-7 84 -3 120 19 212 19 197 -5 205 -32 10 -24 51 11 47 16 -1 33 6 49 23 13
14 32 25 42 25 10 0 18 5 18 10 0 16 22 12 36 -7 12 -17 13 -16 14 4 0 12 3
28 6 37 5 12 0 16 -19 16 -14 0 -29 -4 -32 -10 -3 -5 -30 -21 -58 -35 -70 -33
-100 -66 -152 -169 -33 -67 -45 -83 -54 -72 -6 7 -43 28 -82 46 -62 28 -78 32
-134 28 -53 -3 -72 -10 -112 -38 -26 -19 -51 -39 -55 -44 -4 -6 -8 18 -8 54 0
35 -6 82 -14 105 -8 22 -17 52 -20 67 -9 40 -89 92 -144 92 -29 1 -41 5 -38
13 7 17 -13 28 -27 14 -6 -6 -21 -11 -34 -11 -16 0 -23 -6 -23 -20 0 -13 7
-20 20 -20 20 0 23 -11 22 -65 -1 -17 0 -17 4 -2 3 9 12 17 21 17 11 0 14 6
10 21 -4 15 -1 19 11 17 9 -2 17 -8 17 -15 0 -6 12 -21 28 -33 15 -12 27 -27
27 -34 0 -21 25 -66 36 -66 7 0 14 -7 18 -15 5 -13 2 -14 -15 -4 -25 13 -39
-1 -38 -41 0 -14 -4 -41 -9 -60 -10 -35 -10 -34 -11 18 -1 34 -5 52 -13 52 -9
0 -9 3 1 9 19 12 6 41 -19 41 -16 0 -20 -7 -21 -37 -2 -27 -3 -31 -6 -13 -4
29 -43 61 -43 36 0 -8 5 -18 11 -21 7 -5 5 -13 -6 -25 -10 -11 -19 -44 -22
-80 -6 -60 -5 -62 16 -55 27 8 28 -6 1 -23 -15 -9 -19 -22 -18 -50 1 -44 -10
-102 -25 -120 -7 -9 -6 -11 8 -6 13 5 16 4 11 -4 -4 -7 -2 -12 3 -12 16 0 9
-24 -9 -32 -13 -6 -13 -7 1 -7 20 -1 44 -44 36 -65 -4 -9 -13 -13 -21 -10 -8
3 -17 1 -21 -5 -3 -6 -17 -11 -31 -11 -13 0 -24 -4 -24 -10 0 -18 -35 -11 -48
10 -7 11 -19 20 -28 20 -9 0 -27 9 -41 20 -25 20 -26 22 -25 156 1 75 -3 145
-9 155 -6 13 -6 19 1 19 5 0 10 7 10 16 0 10 6 14 15 10 8 -3 15 -1 15 4 0 6
-7 10 -15 10 -20 0 -20 46 0 54 8 3 14 16 13 30 -2 24 -18 26 -18 2 0 -7 -7
-13 -15 -13 -11 0 -12 4 -4 13 7 8 7 14 -1 19 -5 3 -10 16 -11 28 0 12 -3 16
-6 10 -2 -7 -11 -13 -19 -13 -9 0 -12 -4 -9 -10 3 -5 1 -10 -4 -10 -6 0 -12
-10 -12 -22 -1 -18 -2 -19 -6 -5 -4 15 2 41 33 146 2 7 11 10 19 7 9 -3 15 0
15 10 0 16 -6 14 -52 -18 -32 -22 -88 -136 -97 -198 -6 -41 -9 -45 -31 -41
-14 1 -73 32 -131 67 -58 35 -116 64 -128 64 -43 0 -39 22 36 249 26 80 131
291 145 291 4 0 8 -16 8 -36 0 -28 5 -37 21 -41 17 -5 20 -12 18 -54 -2 -27 0
-52 4 -55 12 -12 37 17 49 57 6 22 15 39 19 39 4 0 11 -36 15 -80 3 -44 11
-80 15 -80 5 0 9 37 10 83 0 53 7 99 19 132 l18 50 1 -52 c1 -41 6 -57 23 -73
25 -23 64 -20 83 4 17 22 45 -5 45 -43 0 -55 25 -35 52 42 19 54 30 73 45 75
17 2 21 13 26 57 6 57 35 115 47 95 11 -17 17 -2 24 62 4 32 12 61 18 64 7 4
8 -7 3 -35 -8 -47 12 -208 26 -217 17 -10 38 17 44 55 4 20 25 90 48 155 l42
119 7 -44 c3 -24 7 -102 7 -172 1 -146 15 -220 40 -215 12 2 18 20 23 68 4 36
11 97 17 135 6 39 10 91 11 116 0 34 5 49 16 53 15 6 16 -4 10 -109 -5 -78 -3
-122 4 -136 6 -11 13 -44 16 -72 4 -57 15 -75 32 -54 13 15 40 245 49 411 5
94 8 109 24 113 11 3 19 14 19 26 0 20 0 20 23 1 12 -10 30 -28 39 -39z m-402
-851 c0 -8 -4 -12 -10 -9 -5 3 -10 10 -10 16 0 5 5 9 10 9 6 0 10 -7 10 -16z
m630 -94 c0 -5 -8 -10 -17 -10 -15 0 -16 2 -3 10 19 12 20 12 20 0z m-50 -177
c-10 -15 -11 -14 -6 7 3 14 7 45 8 70 l2 45 3 -52 c2 -29 -1 -61 -7 -70z
m-1081 -30 c0 -88 -3 -110 -10 -88 -8 27 -2 205 7 205 2 0 4 -53 3 -117z m421
93 c0 -22 -13 -26 -33 -11 -18 13 -18 13 0 18 31 8 33 7 33 -7z m1057 -26 c-1
-11 -4 -20 -8 -20 -16 0 -39 13 -39 22 0 5 4 7 9 3 5 -3 12 -1 16 5 11 17 24
11 22 -10z m-937 -92 c-8 -22 -9 -22 -9 5 -1 15 -7 27 -13 28 -10 0 -10 2 0 6
6 2 12 17 13 31 1 23 2 21 10 -10 5 -22 5 -47 -1 -60z m-135 52 c3 -6 -1 -13
-10 -16 -19 -8 -30 0 -20 15 8 14 22 14 30 1z m1065 -30 c0 -12 -28 -25 -36
-17 -9 9 6 27 22 27 8 0 14 -5 14 -10z m-1408 -106 c-3 -76 -6 -94 -14 -80 -9
17 -11 69 -3 149 3 37 4 39 13 34 4 -3 6 -49 4 -103z m1358 102 c0 -3 -4 -8
-10 -11 -5 -3 -10 -1 -10 4 0 6 5 11 10 11 6 0 10 -2 10 -4z m-938 -91 c1 -77
1 -77 -37 -112 -20 -19 -38 -33 -40 -31 -9 11 -13 68 -5 68 6 0 10 -7 10 -15
0 -8 7 -15 15 -15 15 0 20 14 30 95 8 62 16 97 22 92 2 -3 4 -39 5 -82z m908
75 c0 -5 -4 -10 -10 -10 -5 0 -10 5 -10 10 0 6 5 10 10 10 6 0 10 -4 10 -10z
m-270 -20 c0 -5 -4 -10 -10 -10 -5 0 -10 5 -10 10 0 6 5 10 10 10 6 0 10 -4
10 -10z m333 -190 c-11 -12 -13 -9 -13 20 0 19 3 67 8 105 l7 70 5 -90 c4 -66
2 -94 -7 -105z m-349 84 c3 -48 4 -89 2 -91 -2 -3 -11 6 -20 19 -12 19 -14 39
-9 91 3 37 9 67 13 67 4 0 10 -39 14 -86z m-578 19 c-10 -10 -19 5 -10 18 6
11 8 11 12 0 2 -7 1 -15 -2 -18z m614 -133 c0 -5 -7 -7 -15 -4 -8 4 -15 8 -15
10 0 2 7 4 15 4 8 0 15 -4 15 -10z m10 -30 c0 -5 -4 -10 -10 -10 -5 0 -10 5
-10 10 0 6 5 10 10 10 6 0 10 -4 10 -10z"/>
<path d="M1470 2371 c-14 -28 -13 -51 4 -51 11 0 36 46 36 66 0 13 -31 1 -40
-15z"/>
<path d="M1402 2330 c0 -14 2 -19 5 -12 2 6 2 18 0 25 -3 6 -5 1 -5 -13z"/>
<path d="M1547 2324 c-8 -8 3 -34 14 -34 11 0 12 27 0 34 -4 3 -11 3 -14 0z"/>
<path d="M2597 2316 c-4 -10 -5 -21 -2 -24 9 -9 17 6 13 25 -3 17 -4 17 -11
-1z"/>
<path d="M2432 2140 c-7 -11 -12 -31 -12 -44 0 -19 4 -23 19 -19 15 4 19 12
16 39 -3 43 -8 48 -23 24z"/>
<path d="M2600 2101 c0 -6 4 -13 10 -16 6 -3 7 1 4 9 -7 18 -14 21 -14 7z"/>
<path d="M2410 2026 c0 -19 5 -24 20 -23 12 1 20 8 20 20 0 10 -4 15 -10 12
-5 -3 -10 -1 -10 4 0 6 -4 11 -10 11 -5 0 -10 -11 -10 -24z"/>
<path d="M2460 1856 c0 -9 5 -16 10 -16 6 0 10 4 10 9 0 6 -4 13 -10 16 -5 3
-10 -1 -10 -9z"/>
<path d="M1678 1095 c-4 -4 -54 -7 -112 -7 -113 1 -130 -6 -115 -45 9 -24 10
-24 129 -28 106 -4 238 -15 255 -21 9 -4 21 -17 26 -31 5 -13 21 -28 36 -34
16 -6 35 -16 43 -24 8 -7 54 -33 101 -57 48 -25 106 -59 130 -75 24 -17 82
-45 129 -62 47 -18 112 -46 145 -61 80 -38 144 -46 220 -26 107 28 133 81 101
203 -24 90 -67 150 -154 215 -46 34 -55 37 -75 26 -28 -15 -259 -18 -412 -5
-129 11 -272 23 -370 32 -38 4 -73 4 -77 0z"/>
</g>
</svg>
